<?xml version="1.0" encoding="UTF-8" standalone="no"?>
<!-- Created with Inkscape (http://www.inkscape.org/) -->

<svg
   version="1.1"
   id="svg97"
   width="864"
   height="864"
   viewBox="0 0 864 864"
   xmlns="http://www.w3.org/2000/svg"
   xmlns:svg="http://www.w3.org/2000/svg">
  <defs
     id="defs101" />
  <g
     id="g103">
    <path
       style="fill:#FFFFFF;stroke-width:0.32"
       d="m 439.81229,695.54916 c -13.33651,-0.88499 -27.01587,-6.22451 -37.08634,-14.47606 -12.71068,-10.41494 -21.07459,-25.43901 -23.38409,-42.00477 -0.25283,-1.81369 -0.55834,-5.31363 -0.67885,-7.77763 l -0.21914,-4.48 -5.9558,-0.0394 c -7.01936,-0.0465 -13.88039,-0.95572 -22.70048,-3.00842 -13.97444,-3.25222 -29.24922,-8.07507 -36.08184,-11.39245 l -2.90654,-1.41117 -3.66406,1.5722 c -8.58034,3.68169 -16.6133,5.88496 -26.55882,7.28444 -5.56357,0.78288 -19.26777,0.78861 -25.08404,0.0106 -19.14182,-2.56096 -36.07679,-9.68752 -50.62163,-21.30259 -3.20761,-2.5615 -8.92958,-7.99824 -11.58004,-11.00278 l -1.34945,-1.52973 -2.37095,0.48973 c -6.59128,1.36147 -17.29278,-0.0618 -24.09475,-3.20448 l -2.40058,-1.10915 -0.49212,0.70262 c -2.97808,4.25181 -10.27543,11.78963 -15.41279,15.92074 -12.37973,9.95491 -25.9774,15.86726 -42.07769,18.29564 -3.31964,0.50071 -13.949005,0.49924 -17.440007,-0.003 -21.707923,-3.11929 -38.497648,-14.82972 -47.533197,-33.15321 -4.826582,-9.788 -6.778969,-19.20739 -6.458217,-31.15805 0.329763,-12.28637 3.025878,-22.50934 9.002102,-34.13363 4.276486,-8.31815 9.095146,-14.87911 15.996845,-21.7808 6.887158,-6.88714 13.424041,-11.69133 21.780787,-16.00749 12.444592,-6.42746 24.509397,-9.31635 37.727607,-9.03382 l 5.32424,0.11379 10e-4,-3.04 c 0.005,-11.62634 2.6111,-28.48874 6.27297,-40.58333 3.31127,-10.93664 8.71989,-22.36464 14.86881,-31.41667 15.43123,-22.71683 38.98412,-37.70576 66.79776,-42.50976 1.99151,-0.344 3.66045,-0.676 3.70877,-0.73783 0.0483,-0.0618 0.62627,-2.48841 1.28436,-5.39241 1.33995,-5.9129 4.46996,-15.63511 6.74797,-20.96 16.34754,-38.21279 48.00147,-63.52951 84.81647,-67.83599 10.3681,-1.21282 25.19037,-0.10324 33.90151,2.53784 1.00797,0.3056 1.64051,0.36602 1.70944,0.16328 0.0602,-0.177 1.52173,-2.44207 3.24787,-5.03347 14.53824,-21.82618 36.55235,-38.26605 62.88269,-46.96004 8.08899,-2.67089 16.9623,-4.59779 26.7232,-5.80312 6.52675,-0.80596 22.48633,-0.80682 29.2768,-0.002 23.31389,2.76466 44.58832,10.85558 63.15635,24.01914 8.00394,5.67428 16.87251,13.81203 22.84035,20.95817 l 2.77613,3.32423 8.25357,0.0664 c 10.38611,0.0835 16.25257,0.82536 25.8536,3.26921 46.94944,11.95055 85.76675,53.23357 92.31213,98.17593 1.11088,7.62749 1.17465,18.21763 0.14537,24.13987 -0.12691,0.73037 0.1992,1.05559 2.98,2.97149 14.11293,9.72355 28.04685,23.18195 37.17485,35.90624 13.01638,18.14458 19.54362,38.42359 18.28957,56.8224 -0.14995,2.2 -0.22663,4.04963 -0.17034,4.11027 0.0563,0.0606 1.49373,-0.41097 3.19437,-1.04806 16.00067,-5.99398 34.28035,-6.45453 49.41706,-1.24499 20.32652,6.99571 35.54988,24.35577 39.65673,45.22278 1.19367,6.06509 1.40266,8.76615 1.23623,15.97709 -0.21584,9.35184 -1.53709,16.2631 -4.776,24.98291 -4.54871,12.24602 -11.12452,22.40967 -20.72263,32.02912 -5.73216,5.74487 -8.79277,8.31047 -14.25734,11.95136 -13.78407,9.18387 -28.53296,14.05552 -43.8744,14.49197 -9.45981,0.26912 -16.75264,-0.7529 -24.68243,-3.45901 -9.50292,-3.24294 -17.50525,-8.32848 -24.31456,-15.45203 l -2.9514,-3.08762 -4.46531,2.38912 c -21.94333,11.74071 -39.4871,18.19831 -64.8319,23.86368 -18.63597,4.16576 -35.55011,6.95994 -49.28,8.14093 -13.19757,1.13523 -34.55562,1.67677 -44.7497,1.13463 -6.20297,-0.32989 -15.38083,-1.10852 -17.3631,-1.47309 l -0.9928,-0.18256 -0.20602,1.75283 c -0.31187,2.6535 -2.22016,9.90144 -3.55459,13.50067 -11.13027,30.0209 -41.12538,49.98819 -72.01379,47.93847 z m 14.40099,-5.98316 c 28.48125,-4.8682 50.96435,-27.37453 55.8176,-55.8753 5.46243,-32.0783 -13.53497,-62.2088 -44.07072,-69.89754 -6.75984,-1.70208 -15.7504,-2.28051 -22.47625,-1.44604 -14.41588,1.78857 -27.69312,8.16195 -38.38788,18.427 -10.95635,10.5162 -17.87321,23.76455 -20.35974,38.99658 -0.80013,4.90131 -0.80496,14.69075 -0.01,19.48083 4.51104,27.16928 24.36502,46.71888 51.40566,50.61754 3.85642,0.55603 14.05501,0.38505 18.081,-0.30307 z m -15.52099,-13.03706 c -8.63584,-0.87856 -21.61709,-4.43318 -26.96672,-7.38422 -2.25744,-1.24528 -2.47421,-3.64615 -0.41776,-4.62679 1.06403,-0.50739 1.14336,-0.49021 5.83158,1.26371 11.70816,4.38013 20.38695,5.92448 31.28554,5.5672 12.87914,-0.42227 22.10934,-3.92918 29.13878,-11.07104 1.96839,-1.99984 2.37114,-2.2671 3.41677,-2.2671 1.38938,0 2.51181,1.14179 2.51181,2.55514 0,2.41004 -6.02134,7.79891 -12.16,10.88265 -8.85302,4.44733 -20.71488,6.29367 -32.64,5.08045 z m 119.68,-47.95658 c 21.2207,-0.63452 37.05818,-2.56201 59.36,-7.22435 29.67885,-6.20457 45.09155,-11.45462 68.64,-23.38089 6.97971,-3.53492 10.19363,-4.99728 11.28218,-5.13351 l 1.52217,-0.19049 4.21363,4.38329 c 7.2081,7.49831 14.0552,11.94551 22.99232,14.9336 6.91002,2.31034 12.43588,3.17069 20.3649,3.17069 11.68966,0 22.71347,-2.6727 33.76611,-8.18656 8.79827,-4.38922 15.45575,-9.21434 22.67677,-16.43536 13.8024,-13.8024 21.94221,-30.1879 24.00387,-48.32003 0.48128,-4.23271 0.22224,-13.89418 -0.47661,-17.77805 -2.19744,-12.21181 -7.66211,-22.7672 -15.91721,-30.74518 -4.73277,-4.57389 -8.71687,-7.33597 -14.66813,-10.169 -15.94227,-7.58915 -35.2289,-7.75843 -53.84026,-0.47254 -3.608,1.41245 -4.10169,1.69626 -4.26566,2.45203 -3.57299,16.4713 -11.84371,31.1176 -25.3976,44.97568 -21.88634,22.37754 -53.79587,38.88256 -95.05648,49.16749 -7.66813,1.91142 -9.26006,2.07203 -10.29443,1.03862 -0.93395,-0.93305 -0.96035,-2.73452 -0.0534,-3.64147 0.47258,-0.47261 2.33194,-1.05437 6.544,-2.04755 54.81747,-12.92576 95.52019,-38.9047 112.13942,-71.57421 7.84839,-15.42806 10.16471,-31.13718 6.99114,-47.41331 -4.94221,-25.34672 -22.67584,-49.43104 -51.82637,-70.38627 -2.12278,-1.52599 -4.21078,-3.14816 -4.64,-3.60487 -0.94198,-1.00227 -0.98934,-2.27328 -0.33321,-8.93942 1.26886,-12.89155 -1.47364,-28.46378 -7.49616,-42.5639 -14.485,-33.91265 -47.8576,-61.74413 -83.83098,-69.91182 -7.73216,-1.75558 -12.11542,-2.2915 -20.16,-2.46485 -7.10442,-0.1531 -7.46557,-0.13067 -10.4,0.64576 -7.21222,1.9083 -16.25955,6.9195 -26.76739,14.82605 -7.78301,5.85625 -17.4536,14.95322 -23.24778,21.86876 -2.79664,3.33786 -8.63577,11.8656 -10.15248,14.82715 -0.98304,1.91946 -1.572,2.24947 -3.63901,2.03898 -3.83308,-0.39035 -13.63036,0.9168 -21.04976,2.80843 -18.60153,4.74262 -40.30316,16.87174 -56.7151,31.69824 -9.40202,8.49379 -18.69853,20.12621 -23.34627,29.21248 -1.95453,3.82106 -2.78557,4.55498 -4.44391,3.92448 -1.02889,-0.39117 -1.51977,-1.25011 -1.51369,-2.64874 0.006,-1.5056 2.64147,-6.76848 5.65801,-11.30102 12.80199,-19.23565 31.67575,-35.30643 55.40452,-47.17619 12.96819,-6.48704 23.79443,-9.83018 37.89286,-11.70129 0.836,-0.11096 1.52,-0.34065 1.52,-0.51044 0,-0.57801 -8.46992,-8.81817 -11.0961,-10.79511 -13.17651,-9.91903 -29.89894,-16.85179 -48.2639,-20.00916 -9.66461,-1.66158 -13.31222,-1.94837 -24.8,-1.94988 -8.22726,-9.6e-4 -11.81379,0.12916 -15.42381,0.56011 -10.91878,1.30341 -20.66656,3.51902 -27.81699,6.32261 -23.81782,9.33868 -46.2458,23.47949 -60.95637,38.43289 -6.40775,6.51353 -10.09948,11.2822 -12.59542,16.26972 -1.66679,3.33066 -2.66544,4.10394 -4.48219,3.4706 -2.65353,-0.92503 -1.96991,-3.99348 2.37804,-10.67386 11.75933,-18.06756 37.87575,-37.36123 68.01674,-50.24779 11.20115,-4.78895 21.17766,-7.34836 35.13619,-9.01392 6.73347,-0.80346 25.16256,-0.80443 31.74381,-0.002 24.1424,2.94479 43.66128,10.05692 59.12662,21.54409 4.40048,3.26856 10.881,9.4905 13.50813,12.96919 l 1.85021,2.4499 1.8775,-3.04095 c 9.53802,-15.44837 28.40724,-32.91301 46.90442,-43.41299 2.06077,-1.16981 5.08477,-2.71531 6.72,-3.43444 1.6352,-0.71914 3.02947,-1.36324 3.09834,-1.43134 0.43507,-0.43025 -9.35543,-10.65139 -14.22154,-14.84706 -28.96899,-24.97768 -68.4817,-35.56919 -106.81158,-28.63118 -19.64653,3.55617 -38.39498,12.02898 -53.8121,24.31881 -4.68634,3.73573 -14.02794,13.16534 -17.57379,17.73936 -1.56903,2.024 -4.11651,5.624 -5.66106,8 -4.45216,6.84882 -4.30592,6.66488 -5.47219,6.88367 -0.7007,0.13146 -2.02944,-0.0831 -3.93542,-0.63549 -3.90071,-1.13049 -10.3312,-2.28535 -15.32535,-2.75231 -5.08528,-0.47547 -15.33571,-0.21822 -20.03219,0.50274 -20.13704,3.09127 -38.05089,12.31303 -53.13935,27.35531 -16.15632,16.10682 -27.39516,37.58709 -32.14958,61.446 -0.60913,3.05677 -1.14063,4.29869 -1.97923,4.62483 -0.31452,0.12231 -2.29228,0.50423 -4.39505,0.84874 -17.39037,2.84912 -33.5796,9.80998 -46.09679,19.82019 -6.80404,5.44128 -14.80798,14.26515 -19.75923,21.78333 -12.03845,18.27974 -18.31703,39.93859 -19.58338,67.55565 l -0.18675,4.07273 0.88468,0.19117 c 10.25818,2.21683 18.46132,5.83693 25.70105,11.34202 l 2.41636,1.8374 1.45886,-0.7414 c 2.14524,-1.09024 8.53607,-3.24298 12.74841,-4.29428 4.44267,-1.1088 13.66072,-2.78873 16.93699,-3.08672 l 2.37699,-0.21616 3.06301,-3.20243 c 14.19694,-14.84317 32.34788,-24.01955 54.41899,-27.51197 5.92529,-0.9376 21.7434,-1.00668 27.68402,-0.12092 10.56863,1.5758 20.27282,4.45638 29.72475,8.82345 1.56461,0.72291 2.88262,1.31437 2.92891,1.31437 0.0463,0 1.29809,-2.412 2.78179,-5.36 14.91748,-29.63994 35.04503,-53.52198 54.93556,-65.18301 2.27821,-1.33561 2.54294,-1.58509 2.2543,-2.12441 -0.63965,-1.1952 -6.19929,-6.74253 -8.91053,-8.89076 -16.43564,-13.02272 -42.36893,-22.36121 -69.95478,-25.19049 -6.23319,-0.6393 -19.1981,-0.72387 -24.64,-0.16074 -13.30113,1.37639 -23.83843,4.94794 -29.92415,10.14259 -0.94795,0.80919 -2.06481,1.60096 -2.4819,1.75952 -1.70256,0.64773 -3.27396,-0.55364 -3.27396,-2.50257 0,-1.36029 1.45921,-2.99005 4.65548,-5.19962 12.70778,-8.78489 35.20036,-12.11078 60.60986,-8.96221 21.86692,2.7096 44.1522,10.11744 59.87898,19.90436 7.25411,4.51427 14.47187,10.7112 17.73568,15.22723 1.44224,1.99561 1.70934,2.21497 2.70899,2.22518 1.22285,0.0125 2.57101,1.22803 2.57101,2.31811 0,1.61543 -0.72531,2.26372 -4.69472,4.19639 -16.83382,8.19619 -34.95811,27.12333 -49.61069,51.80832 -4.13309,6.96297 -10.01048,18.34329 -9.65633,18.69744 0.0838,0.0838 2.30548,1.57046 4.93707,3.30368 13.75843,9.06169 24.49632,21.19664 31.75376,35.88512 2.63193,5.32685 2.98451,5.86387 6.62537,10.09069 13.58061,15.76627 20.69175,22.51958 35.36554,33.58611 11.7968,8.89677 21.60061,14.9736 28.91322,17.92163 l 2.80742,1.13181 4.25117,-1.42032 c 14.50646,-4.84656 29.75305,-4.88704 43.66851,-0.11597 8.43142,2.89082 15.61485,7.07779 22.39805,13.05504 l 2.51133,2.21296 5.04899,1.48899 c 9.30256,2.74339 26.83942,6.39027 33.39459,6.94458 l 1.07328,0.0908 -0.0472,-4 c -0.12727,-10.77331 -4.34883,-29.54819 -9.20231,-40.92592 -1.96284,-4.60138 -5.56768,-11.73229 -7.86291,-15.55408 -6.42083,-10.69126 -19.03584,-27.26557 -26.79139,-35.2 -1.89235,-1.936 -3.54006,-3.8417 -3.6616,-4.23485 -0.51248,-1.65789 1.44099,-3.52051 3.24333,-3.09248 1.23891,0.29424 7.38797,6.56688 12.04518,12.28733 13.95955,17.14653 22.2784,30.09958 28.05063,43.67696 5.22966,12.30115 9.59385,31.88822 9.59801,43.07709 l 0.003,4.67405 2.16,0.19548 c 11.56637,1.04672 24.85085,1.07162 31.44,0.0589 3.9049,-0.60016 8.79226,-1.77808 11.24426,-2.71001 3.33101,-1.26605 5.71574,-0.53187 5.71574,1.75971 0,1.64134 -1.2223,2.55443 -5.0808,3.79549 -8.26291,2.65773 -12.98749,3.23606 -26.2792,3.21683 -12.948,-0.0186 -24.21049,-1.01613 -36,-3.18816 -4.85597,-0.89462 -17.55581,-3.72083 -20.05472,-4.46291 -0.84989,-0.25242 -1.54528,-0.38816 -1.54528,-0.3017 0,0.0865 0.72359,1.22947 1.60794,2.54007 6.92672,10.26496 10.74269,22.87897 11.01229,36.40204 0.0554,2.77962 0.15801,5.11111 0.22803,5.18109 0.18944,0.18944 10.4719,1.12762 15.53561,1.41744 6.36525,0.36435 14.81706,0.37376 26.33613,0.0294 z M 741.30855,593.981 c -4.724,-0.35433 -10.75101,-1.559 -14.97764,-2.99372 -4.3472,-1.47568 -5.57792,-2.6786 -4.76022,-4.65271 0.20707,-0.49993 0.80454,-1.08627 1.32774,-1.30297 0.83927,-0.34765 1.39255,-0.25629 4.70087,0.77632 6.44633,2.01203 9.36793,2.47411 16.85299,2.66553 5.28637,0.13517 7.50509,0.0586 10.4,-0.35885 16.3272,-2.35449 29.67885,-10.43718 36.06371,-21.83193 1.89434,-3.38067 3.30557,-4.09904 5.07043,-2.58096 1.63786,1.4088 0.83136,4.08576 -2.76752,9.18595 -9.86601,13.9817 -31.19187,22.6473 -51.91036,21.09334 z m -88.20813,-42.84217 c -0.9576,-0.9576 -1.05299,-1.86605 -0.524,-4.9896 1.11261,-6.56957 1.31571,-9.67002 1.29837,-19.81853 -0.0186,-10.87187 -0.26653,-13.83117 -1.90013,-22.67606 -3.85952,-20.89687 -13.08659,-40.77952 -26.67699,-57.48394 -3.49034,-4.29011 -11.75597,-12.54886 -15.86109,-15.84787 -5.39907,-4.33895 -5.75229,-4.71197 -5.75229,-6.07546 0,-2.34806 2.41539,-3.12659 4.77373,-1.53865 5.69117,3.832 16.33302,14.07996 22.0376,21.22198 3.60323,4.51114 8.92899,12.32192 11.55001,16.9393 14.74468,25.97507 20.60564,56.73731 16.149,84.7607 -0.64682,4.0673 -1.1818,5.59782 -2.07668,5.94122 -1.0118,0.38828 -2.39465,0.18979 -3.01753,-0.43309 z M 388.13229,535.7707 c -1.06659,-1.06659 -0.8495,-2.81533 0.62112,-5.00352 2.20486,-3.2807 5.49549,-7.19328 9.61706,-11.43472 15.92697,-16.39021 34.71452,-29.90723 51.58288,-37.11213 8.32444,-3.55558 15.23708,-5.40985 27.69894,-7.43005 l 1.04,-0.16857 -0.003,-2.14551 c -0.004,-4.82864 -1.56077,-11.94777 -3.89283,-17.80473 -11.38877,-28.60279 -44.06634,-54.10618 -82.02528,-64.01709 -4.99712,-1.30474 -6.02666,-1.93936 -6.02666,-3.71494 0,-1.27303 1.32451,-2.52874 2.66733,-2.52874 1.28771,0 8.78621,1.97283 13.84947,3.64378 21.35981,7.04896 40.41831,18.58454 55.28154,33.46035 8.16669,8.17363 13.70307,15.59888 18.26448,24.49587 3.85693,7.52298 5.76691,13.27661 6.8807,20.72768 l 0.54503,3.64589 2.88953,-3.38679 c 8.78445,-10.29616 21.96698,-22.25088 32.94096,-29.87292 11.25507,-7.81728 26.95843,-15.79648 39.58762,-20.11533 9.944,-3.40058 17.01955,-4.7601 25.99587,-4.99485 6.2311,-0.16298 6.31389,-0.1743 6.16826,-0.84445 -0.0812,-0.37357 -0.44621,-2.40723 -0.8112,-4.51923 -1.14868,-6.64682 -2.3208,-10.81226 -4.84912,-17.23222 -8.06989,-20.49149 -23.39421,-37.60573 -48.58752,-54.26279 -7.98788,-5.28131 -18.37012,-10.6687 -24.93616,-12.93945 -2.79472,-0.96653 -3.64679,-1.69514 -3.64679,-3.1184 0,-1.25828 1.32135,-2.52714 2.63165,-2.52714 3.01046,0 16.97098,6.44448 25.47501,11.75981 17.58777,10.99299 31.71984,23.46128 41.98291,37.04019 6.29552,8.3295 12.24394,20.23664 15.10694,30.24 1.02084,3.56691 2.58685,10.92918 2.59504,12.20019 0.0109,1.66535 0.48112,1.7481 2.12698,0.37415 3.06989,-2.56269 7.10797,-4.99559 13.70813,-8.25888 10.02281,-4.95556 17.57177,-7.78845 26.77168,-10.04669 7.88131,-1.93456 11.53984,-2.37786 19.8431,-2.40448 7.22445,-0.023 7.61664,0.007 8.48,0.65024 0.74781,0.55725 0.90522,0.91296 0.90522,2.04547 0,1.10291 -0.16224,1.49206 -0.82999,1.99059 -0.74096,0.55322 -1.35881,0.61693 -5.76,0.59386 -15.84038,-0.083 -30.95552,3.87613 -48.35596,12.66589 -5.49079,2.77366 -8.98701,5.01417 -13.83559,8.86636 -1.92585,1.53012 -3.79785,2.84317 -4.16,2.91796 -0.36214,0.0747 -3.97046,0.19843 -8.01846,0.27481 -5.56903,0.10509 -8.27536,0.30208 -11.12173,0.80957 -10.07802,1.79683 -19.59251,5.03398 -31.19581,10.61386 -14.99005,7.20854 -26.01369,14.59024 -38.48246,25.76876 -7.24173,6.49236 -16.91059,16.8536 -21.24035,22.76138 -1.16205,1.58557 -1.66442,2.01482 -2.5065,2.14173 -0.57923,0.0873 -2.20515,0.3191 -3.61315,0.51517 -16.95421,2.36086 -28.71306,6.57564 -43.3504,15.53827 -15.5105,9.49728 -34.89911,26.6232 -43.01213,37.99254 -0.84829,1.1888 -1.8063,2.30272 -2.1289,2.47536 -0.94224,0.50429 -2.17875,0.36371 -2.86857,-0.32611 z m 321.37994,-42 c -1.12372,-1.2417 -1.085,-2.05024 0.37289,-7.78438 1.97927,-7.78493 2.54759,-12.65271 2.28915,-19.60759 -0.25174,-6.77462 -0.65113,-10.52528 -1.66579,-15.64278 -0.94457,-4.76394 -0.95267,-5.21459 -0.11296,-6.28208 0.87581,-1.11341 2.57037,-1.15869 3.632,-0.097 2.24544,2.24544 4.33399,20.65709 3.44541,30.37312 -0.43718,4.78026 -1.12029,8.36855 -2.64445,13.89085 -0.84937,3.07763 -1.24013,3.98535 -2.07907,4.82989 -1.21795,1.22608 -2.31869,1.33488 -3.23718,0.32 z m -16.9145,-10.94544 c -1.03987,-1.0399 -1.01254,-2.23706 0.13651,-5.9752 1.76384,-5.73827 2.10064,-8.93754 1.65853,-15.7545 -0.1696,-2.61532 -0.63229,-6.39456 -1.02816,-8.39833 l -0.71978,-3.6432 0.65572,-0.88167 c 0.48809,-0.65628 0.97734,-0.90595 1.91388,-0.97664 2.29968,-0.17363 3.10909,1.44237 4.13476,8.25498 0.62406,4.14525 0.73046,14.05766 0.18128,16.88925 -0.56708,2.92381 -2.26733,8.73321 -2.84583,9.72349 -0.96105,1.64521 -2.85117,1.99753 -4.08691,0.76182 z M 187.56556,468.03652 c -1.56895,-0.63126 -2.32651,-8.16966 -1.73109,-17.22582 1.71998,-26.16 13.15463,-56.03552 30.32753,-79.23725 4.80641,-6.49379 5.8971,-7.44998 7.80661,-6.84393 0.84687,0.2688 1.70626,1.94892 1.47275,2.87929 -0.10065,0.40103 -1.56893,2.58151 -3.26282,4.84551 -14.22269,19.00953 -24.59172,41.72182 -28.90634,63.31638 -1.87471,9.38282 -2.65219,19.69917 -1.99856,26.51866 0.34958,3.64729 0.18275,4.75267 -0.83393,5.52508 -0.54481,0.41392 -2.09891,0.53399 -2.87415,0.22208 z m -47.01543,-9.51747 c -0.86685,-0.74499 -0.90154,-0.89245 -1.00489,-4.27261 -0.30946,-10.11984 4.65856,-23.52224 11.23676,-30.31385 1.42972,-1.47613 1.88843,-1.76189 2.82806,-1.76189 1.54786,0 2.5232,0.96512 2.51883,2.49248 -0.003,0.90774 -0.3084,1.56445 -1.29808,2.78752 -6.15381,7.60502 -9.89852,17.6631 -9.89852,26.58685 0,3.29785 -0.32534,4.36704 -1.49034,4.89785 -1.17955,0.53744 -1.90327,0.43325 -2.89182,-0.41635 z M 490.22195,431.3691 c -0.91523,-0.4721 -1.25932,-1.10576 -2.39718,-4.41462 -2.82746,-8.22224 -11.06269,-17.82493 -20.01248,-23.33562 -3.11014,-1.91501 -3.52,-2.33539 -3.52,-3.61037 0,-1.33001 0.48374,-2.0407 1.67072,-2.45449 0.9383,-0.32711 1.27466,-0.25018 3.31469,0.75808 5.6424,2.78864 13.13398,9.57267 18.04262,16.33862 3.31443,4.56854 6.73197,11.85776 6.73197,14.35859 0,1.00019 -1.17424,2.35917 -2.24,2.59239 -0.44,0.0963 -1.15565,-0.008 -1.59034,-0.23258 z m 16.04023,-11.9984 c -0.36352,-0.308 -1.0992,-1.67901 -1.63479,-3.04672 -3.76012,-9.60182 -11.22323,-19.64454 -17.85804,-24.03069 -2.46756,-1.63126 -2.95706,-2.2199 -2.95706,-3.55609 0,-1.07114 1.32957,-2.4065 2.3961,-2.4065 1.92131,0 7.02688,3.55478 10.37462,7.22339 6.56918,7.19885 13.78854,19.6808 13.78912,23.84083 2.9e-4,2.13652 -2.50093,3.33895 -4.10995,1.97578 z M 376.70883,256.57031 c -1.17952,-0.82615 -1.22742,-2.16335 -0.15932,-4.44585 4.97033,-10.62135 18.50988,-21.70959 32.09568,-26.28482 3.90528,-1.31518 9.88905,-2.52866 10.92275,-2.2151 2.01481,0.61117 2.82438,2.83703 1.53517,4.22083 -0.73952,0.79381 -0.90477,0.84847 -4.5994,1.52145 -13.72096,2.49931 -28.39056,12.78783 -34.92073,24.49168 -0.63591,1.13971 -1.4544,2.32421 -1.81888,2.63221 -0.81299,0.68701 -2.13875,0.72155 -3.05527,0.0796 z m 0.94836,364.76106 c 1.4472,-0.19837 1.45526,-0.20646 1.66617,-1.68 2.9752,-20.78358 15.21322,-39.9592 32.80893,-51.40797 1.672,-1.0879 3.61094,-2.2703 4.3088,-2.62758 l 1.26877,-0.6496 -2.90448,-1.45872 c -12.14512,-6.09965 -28.98544,-18.19155 -42.27469,-30.35459 -3.76557,-3.44643 -11.68016,-11.66179 -14.4337,-14.98221 -0.80496,-0.97066 -0.79638,-1.06272 -0.1935,2.08 0.89139,4.64685 1.4288,10.48432 1.4288,15.52 0,27.80445 -14.02077,53.20339 -38.18707,69.17683 -2.08288,1.37674 -3.91888,2.50317 -4.08,2.50317 -0.16111,0 -0.29293,0.13334 -0.29293,0.29629 0,1.08109 22.04627,8.00121 34.08,10.69744 10.87546,2.4367 21.63514,3.59555 26.8049,2.88694 z m -95.99246,-7.14672 c 37.15588,-5.66729 65.25988,-31.66873 71.26561,-65.93395 0.89683,-5.1169 1.21897,-15.03302 0.65696,-20.22243 -2.64528,-24.42464 -16.35722,-46.33843 -38.09501,-60.88163 -21.78861,-14.57719 -50.22951,-19.4416 -75.85088,-12.97319 -12.32537,3.11168 -24.54608,9.16163 -34.06912,16.86615 -3.74311,3.02835 -9.44571,8.77209 -12.32218,12.4111 -8.09719,10.24374 -13.51222,22.37811 -15.70818,35.2 -0.84411,4.92861 -1.15632,14.39091 -0.63981,19.39082 2.78435,26.9527 19.04575,50.8095 44.33393,65.0415 9.63216,5.4209 21.81834,9.49306 33.13624,11.07286 6.52155,0.91034 6.65509,0.91738 15.2,0.80384 5.77204,-0.0767 8.7762,-0.26924 12.09244,-0.77507 z m 17.42259,-88.66205 c -2.88804,-0.72854 -5.74508,-2.72115 -7.21627,-5.03286 -3.94337,-6.19632 -1.62953,-14.19747 5.00519,-17.30771 1.59508,-0.74775 2.20541,-0.84992 5.01605,-0.83965 3.87616,0.0141 5.39979,0.59744 8.01073,3.06675 2.44034,2.308 3.42671,4.49114 3.59711,7.96157 0.10903,2.22051 0.008,3.05171 -0.54754,4.52634 -1.28126,3.39804 -3.89041,6.04425 -7.0603,7.1606 -1.79772,0.63309 -5.21336,0.86647 -6.80497,0.46496 z m -73.59634,-14.08054 c -3.36909,-0.84666 -6.58143,-3.46602 -8.13727,-6.6352 -0.81474,-1.65962 -0.90142,-2.15923 -0.90142,-5.19616 0,-3.07626 0.0787,-3.51536 0.93187,-5.1999 1.26338,-2.49444 3.44005,-4.62141 5.94813,-5.81239 1.84815,-0.87763 2.40102,-0.98736 4.96,-0.98457 3.45569,0.004 5.72807,0.78387 7.93052,2.72256 4.06116,3.57478 5.32281,8.77609 3.38603,13.95945 -0.97158,2.60019 -3.87188,5.4945 -6.51655,6.50304 -2.13977,0.816 -5.71103,1.11818 -7.60131,0.64317 z M 104.29229,611.74747 c 11.15635,-1.29763 23.22608,-5.83575 33.12,-12.45287 11.2098,-7.49715 20.88483,-17.97094 26.90733,-29.12876 0.85354,-1.58132 1.87401,-3.19914 2.26773,-3.59514 0.9678,-0.97341 2.46886,-0.94518 3.47948,0.0654 1.41251,1.41251 0.98161,2.98467 -2.30015,8.39216 -0.76691,1.26368 -1.39439,2.44122 -1.39439,2.61674 0,0.45942 4.77094,2.2326 7.97959,2.96572 2.85628,0.65264 11.40996,1.18269 12.92974,0.80125 l 0.83168,-0.20873 -2.35526,-3.59629 c -6.99242,-10.67683 -11.27932,-21.45626 -13.32919,-33.51629 -0.97049,-5.7097 -1.20663,-16.79859 -0.48382,-22.72 1.54894,-12.68934 5.76945,-24.21027 12.87584,-35.14784 1.7162,-2.64144 1.72454,-2.66608 0.84239,-2.49229 -0.49004,0.0965 -3.19497,0.61895 -6.01097,1.1609 -2.816,0.54195 -6.47348,1.34982 -8.12773,1.79533 -2.81429,0.75785 -8.62825,2.74115 -9.3583,3.19235 -0.19374,0.11974 -0.006,0.54525 0.46069,1.04665 1.66467,1.78682 1.9292,3.23248 0.80956,4.42426 -0.4595,0.48912 -1.06084,0.74064 -1.7708,0.74064 -0.90463,0 -1.50903,-0.4088 -3.81308,-2.57907 -8.88607,-8.37015 -17.81743,-13.02189 -29.56034,-15.39597 -3.27406,-0.66192 -4.56247,-0.74339 -11.68,-0.73862 -8.53062,0.006 -10.88155,0.27078 -17.440005,1.96614 -19.082204,4.9328 -36.572066,17.68451 -47.768322,34.82752 -17.737834,27.15907 -16.556691,60.53158 2.859507,80.79395 8.877149,9.26403 20.350602,15.00538 33.548813,16.78791 4.414586,0.59622 11.328372,0.59408 16.480007,-0.005 z M 96.449745,590.80856 C 71.574561,588.7019 56.076421,567.99115 60.65884,542.97982 c 0.422787,-2.30762 0.700435,-3.04534 1.415101,-3.76 1.12447,-1.12448 2.311081,-1.14547 3.396451,-0.0601 0.903216,0.9032 0.908435,1.23108 0.111632,7.01098 -0.448951,3.25664 -0.393239,7.55373 0.144163,11.11894 2.332608,15.47498 13.568109,26.06135 29.766096,28.04634 6.689777,0.81978 12.942087,0.0926 22.119947,-2.5728 3.4563,-1.00374 5.42078,2.82861 2.37287,4.62906 -1.22255,0.72217 -8.79737,2.64566 -12.01281,3.05043 -3.93261,0.49504 -8.343565,0.6351 -11.522545,0.36589 z"
       id="path265" />
  </g>
</svg>
